<svg width="495" height="431" viewBox="0 0 495 431" fill="none" xmlns="http://www.w3.org/2000/svg">
<g clip-path="url(#clip0_12_34)">
<path d="M434.373 217.922C443.005 218.768 451.593 219.831 460.135 221.112V222.263C451.647 221 443.059 219.952 434.373 219.116C417.893 217.528 401.29 216.724 384.668 216.71H384.106C330.698 216.74 277.924 225.174 229.37 241.44C219.308 244.798 209.473 248.469 199.865 252.453C168.014 265.66 138.917 282.136 113.46 301.379C96.251 314.384 80.8279 328.593 67.4128 343.8C65.7117 345.722 64.0475 347.662 62.4202 349.621C55.8722 357.472 49.8712 365.559 44.4401 373.853C32.8227 391.601 23.9039 410.226 17.8441 429.396C17.6995 429.806 17.5719 430.223 17.4443 430.639C17.4103 430.757 17.3678 430.882 17.3337 431L15.6752 430.726C15.6837 430.695 15.6922 430.67 15.7007 430.639C15.8283 430.223 15.9559 429.812 16.092 429.396C22.2861 409.757 31.4368 390.681 43.3769 372.516V372.51C49.1056 363.768 55.4623 355.254 62.4202 347.003C64.0532 345.062 65.7174 343.137 67.4128 341.226C80.8242 326.146 96.2027 312.051 113.333 299.14C123.808 291.244 134.922 283.814 146.614 276.891L146.622 276.885C163.317 267.006 181.129 258.182 199.865 250.506C207.801 247.248 215.85 244.226 224.012 241.44C274.36 224.198 329.308 215.325 384.906 215.46C401.451 215.493 417.975 216.315 434.373 217.922Z" fill="#3F3D56"/>
<path d="M255.255 76.9324C280.768 76.9324 301.451 61.8108 301.451 43.1573C301.451 24.5039 280.768 9.38232 255.255 9.38232C229.741 9.38232 209.058 24.5039 209.058 43.1573C209.058 61.8108 229.741 76.9324 255.255 76.9324Z" fill="#001933"/>
<path d="M56.2291 423.328C57.6699 427.222 62.6047 429.633 62.6047 429.633C62.6047 429.633 65.2037 425.732 63.7629 421.838C62.3222 417.944 57.3873 415.532 57.3873 415.532C57.3873 415.532 54.7883 419.434 56.2291 423.328Z" fill="#3F3D56"/>
<path d="M58.3462 422.491C62.2996 425.305 62.7825 429.63 62.7825 429.63C62.7825 429.63 56.8556 429.393 52.9022 426.58C48.9487 423.766 48.4658 419.441 48.4658 419.441C48.4658 419.441 54.3927 419.677 58.3462 422.491Z" fill="#001933"/>
<path d="M165.947 423.328C167.388 427.222 172.323 429.633 172.323 429.633C172.323 429.633 174.922 425.732 173.481 421.838C172.04 417.944 167.105 415.532 167.105 415.532C167.105 415.532 164.506 419.434 165.947 423.328Z" fill="#3F3D56"/>
<path d="M168.064 422.491C172.018 425.305 172.5 429.63 172.5 429.63C172.5 429.63 166.574 429.393 162.62 426.58C158.667 423.766 158.184 419.441 158.184 419.441C158.184 419.441 164.111 419.677 168.064 422.491Z" fill="#001933"/>
<path d="M460.135 81.8495V122.06L434.373 134.758L396.524 153.401L354.466 174.127L288.465 149.999L205.07 119.517L187.703 113.168L170.335 103.007L223.961 67.9981L239.363 57.9443C257.555 46.0692 281.089 39.5056 305.477 39.5056H402.218C409.824 39.5056 417.355 40.6009 424.382 42.7289C431.409 44.8569 437.794 47.9759 443.172 51.9079C448.55 55.8399 452.816 60.5078 455.726 65.6452C458.637 70.7826 460.135 76.2889 460.135 81.8495Z" fill="#001933"/>
<path d="M434.602 102.827L460.135 82.5366C504.779 202.939 508.428 319.34 460.135 430.67H427.738L425.995 429.396L380.832 396.382L354.619 377.218L355.308 373.524L357.689 360.82L362.92 332.881L368.627 302.398L374.334 271.922L380.041 241.44L384.668 216.71L384.906 215.46L385.748 210.958L391.455 180.475L396.524 153.401L397.162 149.999L401.364 127.564L403.107 118.248L434.373 103.007L434.602 102.827Z" fill="#CCCCCC"/>
<path d="M170.332 103.006H434.372V430.673H170.332C141.502 310.78 134.255 198.876 170.332 103.006Z" fill="#F2F2F2"/>
<path d="M321.46 350.661H272.821V430.673H321.46V350.661Z" fill="#CCCCCC"/>
<path d="M401.367 302.4H199.863V332.881H401.367V302.4Z" fill="#001933"/>
<path d="M416.758 375.228H330.844V388.224H416.758V375.228Z" fill="#001933"/>
<path d="M263.663 375.228H177.749V388.224H263.663V375.228Z" fill="#001933"/>
<path d="M401.367 241.439H199.863V271.919H401.367V241.439Z" fill="#001933"/>
<path d="M401.367 180.478H199.863V210.958H401.367V180.478Z" fill="#001933"/>
<path d="M401.367 119.516H199.863V149.997H401.367V119.516Z" fill="#001933"/>
<path d="M460.135 429.396H0V430.639H460.135V429.396Z" fill="#3F3D56"/>
<path d="M67.4128 285.804H62.4161V430.103H67.4128V285.804Z" fill="#001933"/>
<path d="M113.526 304.193C113.844 354.651 65.2888 395.72 65.2888 395.72C65.2888 395.72 16.2177 354.98 15.8997 304.522C15.5816 254.065 64.137 212.996 64.137 212.996C69.3041 199.627 124.59 224.287 113.526 304.193Z" fill="#001933"/>
<path opacity="0.1" d="M113.526 304.193C113.844 354.651 65.2888 395.72 65.2888 395.72C65.2888 395.72 16.2177 354.98 15.8997 304.522C15.5816 254.065 64.137 212.996 64.137 212.996C69.3041 199.627 124.59 224.287 113.526 304.193Z" fill="black"/>
<path d="M2.45803 285.802H0V430.105H2.45803V285.802Z" fill="#3F3D56"/>
<path d="M48.5736 304.196C107.127 315.284 44.1996 341.605 32.4986 356.927V356.933C24.6096 370.09 14.519 382.48 2.458 393.821C1.10567 395.064 0.331687 395.717 0.331687 395.717L-3.05176e-05 395.437V213.7C12.8853 225.319 23.6337 238.121 31.9713 251.781V251.787C41.0209 266.599 22.7199 299.299 48.5736 304.196Z" fill="#001933"/>
<path d="M120.069 173.766C120.069 173.766 88.2932 173.561 48.9308 173.691C30.0151 173.753 12.792 173.884 3.05176e-05 174.008V157.922C13.7616 150.217 31.9118 144.079 48.7947 151.032C81.9653 164.7 120.069 173.766 120.069 173.766Z" fill="#F2F2F2"/>
<path d="M191.823 25.6944C152.464 25.827 120.427 26.2522 120.427 26.2522C120.427 26.2522 158.508 -10.6271 191.681 3.03639C224.853 16.6999 262.96 25.7719 262.96 25.7719C262.96 25.7719 231.183 25.5618 191.823 25.6944Z" fill="#F2F2F2"/>
<path d="M300.976 38.3117L406.601 34.5358C421.168 34.015 435.469 37.5318 446.644 44.3837C457.82 51.2356 465.048 60.918 466.885 71.4965L479.697 145.286L434.696 102.864L434.602 102.827L299.938 51.762L297.266 50.7488C289.092 47.6498 291.779 38.6408 300.976 38.3117Z" fill="#001933"/>
<path d="M354.67 63.6893H268.755V76.6852H354.67V63.6893Z" fill="#F2F2F2"/>
<path d="M321.499 342.407H281.524C253.682 262.943 253.682 185.007 281.524 108.598H321.499C346.947 187.877 347.86 265.862 321.499 342.407Z" fill="#F2F2F2"/>
</g>
<defs>
<clipPath id="clip0_12_34">
<rect width="495" height="431" fill="white"/>
</clipPath>
</defs>
</svg>
